<svg xmlns="http://www.w3.org/2000/svg" viewBox="0 0 712.55 116.12">
  <g data-name="Capa 2">
    <g data-name="Capa 1">
      <path d="M284 0h27.62v92H284ZM320.66 0h27.62v18.36h-27.62ZM586.08 0h27.62v18.36h-27.62ZM491.43 21.89q7.76 0 15.5.26a69.52 69.52 0 0 1 19.53 3.7 19.32 19.32 0 0 1 13.22 15.07 45.12 45.12 0 0 1 .59 6.24h-27.62a4.85 4.85 0 0 0-2-4.3 24.09 24.09 0 0 0-8.42-1.35q-5.9-.16-11.79 0a40.09 40.09 0 0 0-5.89.68 5.69 5.69 0 0 0-2.45 1.26c-.84 1.72-.37 2.93 1.44 3.62a23.65 23.65 0 0 0 3.53.68q12.22.54 24.42 1.51A85.44 85.44 0 0 1 529.83 53 15.66 15.66 0 0 1 541 66q2.87 16.71-12.72 23a73.41 73.41 0 0 1-19 3.7 150.77 150.77 0 0 1-30.48-.84 44.84 44.84 0 0 1-14.65-4.72 19.31 19.31 0 0 1-9.69-14.4 57 57 0 0 1-.42-4.88h27.62c0 3.06 1.51 4.77 4.55 5.14a38.9 38.9 0 0 0 5.05.5q6.4.17 12.8 0a60.79 60.79 0 0 0 6.74-.67 4.16 4.16 0 0 0 2.78-1.6 2.59 2.59 0 0 0-1.77-3.62 34.9 34.9 0 0 0-4-.84q-10.44-.8-20.89-1.18a100.07 100.07 0 0 1-18.69-3q-13.44-3.43-14.06-17.27-.94-12.72 10.36-18.44a61 61 0 0 1 19-4.38q3.98-.27 7.9-.61ZM0 23.24q14.94-.25 30-.17 7.32 21.27 14.9 42.44 7.33-21.21 14.89-42.35 16.08-.16 32.21 0l14.91 42.35q7.53-21.11 14.9-42.27 15-.3 30-.08Q139.53 57.49 127.66 92H88.42q-6.1-18-12.55-35.92Q69.42 74 63.32 92H24.08Q12.17 57.53 0 23.24ZM320.66 23.07h27.62V92h-27.62Z" style="fill:#2a2a2a;fill-rule:evenodd"/>
      <path d="M419.69 23.07c.05 2.81 0 5.62-.17 8.42a.18.18 0 0 1-.17-.17l.34-8.25Z" style="fill:#333;fill-rule:evenodd"/>
      <path d="M586.08 23.07h27.62V92h-27.62Z" style="fill:#2a2a2a;fill-rule:evenodd"/>
      <path d="M226 34.52q0 3.79-.08 7.58a.75.75 0 0 1-.26-.33c.13-2.42.24-4.83.34-7.25Z" style="fill:#838383;fill-rule:evenodd"/>
      <path d="M419.69 23.07c.05 2.81 0 5.62-.17 8.42a.18.18 0 0 1-.17-.17 30.93 30.93 0 0 0-14-7.83 59 59 0 0 0-25.6-.33q-19.39 4.66-23.66 24.16a56.26 56.26 0 0 0 0 20.21q4.14 19.65 23.66 24.34a58.34 58.34 0 0 0 25.43-.34 30.34 30.34 0 0 0 14.15-7.83.19.19 0 0 1 .17-.17c.17 2.81.22 5.61.17 8.42h27.45V23.07Zm-.42 37.56a10.46 10.46 0 0 1-6.66 7.66 34.41 34.41 0 0 1-14.31 1.85 22.16 22.16 0 0 1-11.3-3.36 10.35 10.35 0 0 1-4.12-7.67q-1-8.94 7.16-12.54a35.74 35.74 0 0 1 8.25-1.77 43.29 43.29 0 0 1 11.79 1.09q11.22 3.18 9.19 14.74ZM686.29 24.17a95.15 95.15 0 0 0-23.92-2.28 81.49 81.49 0 0 0-16.67 2.61q-24.65 7.26-25.1 32.93.25 25 23.92 32.76a79.65 79.65 0 0 0 28.12 2.69A61.92 61.92 0 0 0 693 88.5q17-7.48 19.29-26 2.78-29.99-26-38.33Zm-1.6 36.46a10.46 10.46 0 0 1-6.69 7.66 34.41 34.41 0 0 1-14.31 1.85 22.16 22.16 0 0 1-11.29-3.36 10.35 10.35 0 0 1-4.12-7.67q-1-8.94 7.16-12.54a35.74 35.74 0 0 1 8.25-1.77 43.29 43.29 0 0 1 11.79 1.09q11.24 3.18 9.21 14.74Z" style="fill:#2a2a2a;fill-rule:evenodd"/>
      <path d="M276.28 56.08q-3.18-33.4-35.45-42.35a116.06 116.06 0 0 0-35.87-3 82.3 82.3 0 0 0-25.6 5.56q-21.81 9.18-27.7 32.08a71.39 71.39 0 0 0-1.18 22.91 48.47 48.47 0 0 0 10.27 25.6 51.52 51.52 0 0 0 26.36 16.08 107.46 107.46 0 0 0 38.73 2.44v-11.49h-.5c-2.86.28-5.72.47-8.59.59a82 82 0 0 1-26.75-2.86q-26.64-8-28.38-35.79-1.32-32.25 29.53-41.35a88.85 88.85 0 0 1 27.28-2.5 83.94 83.94 0 0 1 24.42 4q17.64 6.38 21.15 24.86a68 68 0 0 1 .34 22.23 7.52 7.52 0 0 1-2.28 4.3 5.64 5.64 0 0 1-6.48-.59 12.32 12.32 0 0 1-1.85-5.56q-.37-18.36-.26-36.72H226q0 3.79-.08 7.58a.75.75 0 0 1-.26-.33 24.37 24.37 0 0 0-9.6-6.32A44.18 44.18 0 0 0 191 35q-14.28 4.92-17.26 19.78a47.86 47.86 0 0 0 .34 18.36 24.92 24.92 0 0 0 10.5 15.36 34 34 0 0 0 17.94 4.5 37.77 37.77 0 0 0 11.2-1.26A24 24 0 0 0 229.13 80a24.19 24.19 0 0 0 7.87 9.34 27.2 27.2 0 0 0 17.34 3.54q17.29-1.88 21.1-18.95a64 64 0 0 0 .84-17.85ZM221.8 68.8a22.4 22.4 0 0 1-5.56 1.2 32.86 32.86 0 0 1-10.78-.85q-6.44-2.22-4.29-8.67a8.71 8.71 0 0 1 5.83-3.64c1.26-.22 2.49-.42 3.71-.59a42.05 42.05 0 0 1 8.75.59 9.18 9.18 0 0 1 5.48 2.95 5.76 5.76 0 0 1 .84 1.68q1 5.32-3.98 7.33ZM548.19 71.24h27.62V92h-27.62Z" style="fill:#3b82f6;fill-rule:evenodd"/>
      <path d="M419.35 83.7a.19.19 0 0 1 .17-.17c.17 2.81.22 5.61.17 8.42q-.18-4.12-.34-8.25Z" style="fill:#333;fill-rule:evenodd"/>
      <path d="M225.34 103.91a.78.78 0 0 1 .67-.17q.09 5.87-.17 11.62v-11.45Z" style="fill:#7c7c7c;fill-rule:evenodd"/>
    </g>
  </g>
</svg>
